<svg width="41" height="27" viewBox="0 0 41 27" fill="none" xmlns="http://www.w3.org/2000/svg">
<path d="M5.66443 5.82528C14.6313 4.0935 25.137 3.69627 29.8103 3.75731C34.4835 3.81834 36.4554 4.81376 37.8771 6.51461C40.1819 9.27192 39.6956 16.1488 35.5723 18.3532C31.4513 20.5577 14.4374 20.7673 8.76758 18.3532C2.77735 15.8014 5.90696 8.84729 5.71105 4.09232C5.8286 1.43152 1 1 1 1" stroke="#A3A9BA" stroke-width="1.9536" stroke-linecap="round" stroke-linejoin="round"/>
<path d="M22.8959 10.6506H29.2872" stroke="#A3A9BA" stroke-width="1.9536" stroke-linecap="round" stroke-linejoin="round"/>
<path fill-rule="evenodd" clip-rule="evenodd" d="M9.67559 23.9235C10.367 23.9235 10.9294 24.2599 10.9294 24.6735C10.9294 25.0884 10.367 25.4248 9.67559 25.4248C8.98184 25.4248 8.41946 25.0884 8.41946 24.6735C8.41946 24.2599 8.98184 23.9235 9.67559 23.9235Z" fill="#A3A9BA" stroke="#A3A9BA" stroke-width="1.9536" stroke-linecap="round" stroke-linejoin="round"/>
<path fill-rule="evenodd" clip-rule="evenodd" d="M33.4874 23.9235C34.1812 23.9235 34.7436 24.2599 34.7436 24.6735C34.7436 25.0884 34.1812 25.4248 33.4874 25.4248C32.796 25.4248 32.2336 25.0884 32.2336 24.6735C32.2336 24.2599 32.796 23.9235 33.4874 23.9235Z" fill="#A3A9BA" stroke="#A3A9BA" stroke-width="1.9536" stroke-linecap="round" stroke-linejoin="round"/>
</svg>
