<svg width="51" height="39" viewBox="0 0 51 39" fill="none" xmlns="http://www.w3.org/2000/svg">
<path d="M18.6053 3.18542H32.395V26.6011H18.6053V3.18542Z" fill="#FF5F00"/>
<path d="M9.28128 38.3871V35.905C9.28128 34.9533 8.66827 34.3329 7.61755 34.3329C7.09229 34.3329 6.52315 34.4983 6.12911 35.0362C5.8228 34.5811 5.38508 34.3329 4.7284 34.3329C4.29049 34.3329 3.85297 34.4569 3.50259 34.912V34.4156H2.58328V38.3871H3.50259V36.1944C3.50259 35.4913 3.89664 35.1602 4.50964 35.1602C5.12225 35.1602 5.42895 35.5326 5.42895 36.1944V38.3871H6.34826V36.1944C6.34826 35.4913 6.78578 35.1602 7.35492 35.1602C7.96792 35.1602 8.27423 35.5326 8.27423 36.1944V38.3871H9.28128ZM22.8956 34.4156H21.4074V33.2159H20.4881V34.4156H19.6563V35.2015H20.4879V37.0219C20.4879 37.9322 20.8819 38.4698 21.9327 38.4698C22.3267 38.4698 22.7642 38.3458 23.0709 38.1804L22.8081 37.4356C22.5455 37.6011 22.2392 37.6425 22.0202 37.6425C21.5825 37.6425 21.4074 37.3943 21.4074 36.9805V35.2015H22.8956V34.4156ZM30.688 34.3327C30.1628 34.3327 29.8126 34.5811 29.5936 34.912V34.4156H28.6743V38.3871H29.5936V36.1532C29.5936 35.4913 29.8999 35.1189 30.4691 35.1189C30.6442 35.1189 30.8631 35.1604 31.0382 35.2016L31.3008 34.3743C31.1258 34.3329 30.8631 34.3329 30.688 34.3329V34.3327ZM18.9121 34.7465C18.4742 34.4569 17.8614 34.3329 17.2047 34.3329C16.1542 34.3329 15.4538 34.8293 15.4538 35.6153C15.4538 36.2773 15.9791 36.6495 16.8984 36.7737L17.3361 36.8152C17.8177 36.8977 18.0803 37.0219 18.0803 37.2289C18.0803 37.5183 17.7302 37.7252 17.1172 37.7252C16.5043 37.7252 16.0228 37.5183 15.7162 37.3116L15.2785 37.9734C15.7601 38.3044 16.4168 38.4698 17.0733 38.4698C18.2991 38.4698 18.9996 37.9322 18.9996 37.1874C18.9996 36.4841 18.4305 36.1117 17.5549 35.9877L17.1172 35.9462C16.7231 35.9048 16.4168 35.8222 16.4168 35.574C16.4168 35.2844 16.7231 35.1189 17.2047 35.1189C17.7302 35.1189 18.2554 35.3256 18.518 35.4498L18.9121 34.7465ZM43.3396 34.3329C42.8141 34.3329 42.464 34.5811 42.245 34.912V34.4156H41.3257V38.3871H42.245V36.1532C42.245 35.4913 42.5515 35.1189 43.1205 35.1189C43.2957 35.1189 43.5147 35.1604 43.6898 35.2016L43.9524 34.3743C43.7773 34.3329 43.5147 34.3329 43.3396 34.3329ZM31.6073 36.4014C31.6073 37.6011 32.4828 38.4698 33.84 38.4698C34.4528 38.4698 34.8905 38.3458 35.3283 38.0149L34.8905 37.3116C34.5404 37.5598 34.1902 37.6838 33.7961 37.6838C33.0519 37.6838 32.5267 37.1874 32.5267 36.4014C32.5267 35.6568 33.0519 35.1602 33.7961 35.1189C34.1902 35.1189 34.5404 35.2429 34.8905 35.4913L35.3283 34.788C34.8905 34.4569 34.4528 34.3329 33.84 34.3329C32.4828 34.3329 31.6073 35.2016 31.6073 36.4014ZM40.1001 36.4014V34.4156H39.1808V34.912C38.8743 34.5398 38.4366 34.3329 37.8674 34.3329C36.6855 34.3329 35.7662 35.2016 35.7662 36.4014C35.7662 37.6011 36.6855 38.4698 37.8674 38.4698C38.4802 38.4698 38.9182 38.2631 39.1808 37.8907V38.3871H40.1001V36.4014ZM36.7292 36.4014C36.7292 35.698 37.2107 35.1189 37.9986 35.1189C38.7429 35.1189 39.2683 35.6568 39.2683 36.4014C39.2683 37.1047 38.7429 37.6838 37.9986 37.6838C37.2107 37.6423 36.7292 37.1047 36.7292 36.4014ZM25.7413 34.3329C24.5155 34.3329 23.6399 35.1602 23.6399 36.4014C23.6399 37.6425 24.5153 38.4698 25.785 38.4698C26.3978 38.4698 27.0108 38.3044 27.4924 37.9322L27.0545 37.3116C26.7043 37.5598 26.2666 37.7252 25.8289 37.7252C25.2597 37.7252 24.6906 37.4771 24.5592 36.7736H27.6675V36.4428C27.7113 35.1602 26.9233 34.3329 25.7411 34.3329H25.7413ZM25.7413 35.0775C26.3102 35.0775 26.7045 35.4086 26.7918 36.0292H24.603C24.6906 35.4913 25.0846 35.0775 25.7413 35.0775ZM48.549 36.4014V32.8435H47.6297V34.912C47.3232 34.5398 46.8854 34.3329 46.3163 34.3329C45.1344 34.3329 44.215 35.2016 44.215 36.4014C44.215 37.6011 45.1344 38.4698 46.3163 38.4698C46.9293 38.4698 47.367 38.2631 47.6297 37.8907V38.3871H48.549V36.4014ZM45.1782 36.4014C45.1782 35.698 45.6596 35.1189 46.4477 35.1189C47.1919 35.1189 47.7172 35.6568 47.7172 36.4014C47.7172 37.1047 47.1919 37.6838 46.4477 37.6838C45.6596 37.6423 45.1782 37.1047 45.1782 36.4014ZM14.4468 36.4014V34.4156H13.5275V34.912C13.221 34.5398 12.7832 34.3329 12.2141 34.3329C11.0322 34.3329 10.1128 35.2016 10.1128 36.4014C10.1128 37.6011 11.0322 38.4698 12.2141 38.4698C12.8271 38.4698 13.2648 38.2631 13.5275 37.8907V38.3871H14.4468V36.4014ZM11.0322 36.4014C11.0322 35.698 11.5137 35.1189 12.3016 35.1189C13.0459 35.1189 13.5713 35.6568 13.5713 36.4014C13.5713 37.1047 13.0459 37.6838 12.3016 37.6838C11.5137 37.6423 11.0322 37.1047 11.0322 36.4014Z" fill="white"/>
<path d="M19.4808 14.8934C19.4808 10.1358 21.8447 5.91596 25.478 3.18545C22.8079 1.1997 19.4371 0 15.7599 0C7.04798 0 0 6.66055 0 14.8934C0 23.126 7.04798 29.7867 15.7597 29.7867C19.4369 29.7867 22.8077 28.587 25.478 26.6011C21.8447 23.9121 19.4808 19.6509 19.4808 14.8934Z" fill="#EB001B"/>
<path d="M50.9998 14.8934C50.9998 23.126 43.9519 29.7867 35.2401 29.7867C31.5629 29.7867 28.1922 28.587 25.5218 26.6011C29.199 23.8708 31.5192 19.6509 31.5192 14.8934C31.5192 10.1358 29.1552 5.91596 25.5218 3.18544C28.192 1.1997 31.5629 0 35.2401 0C43.9519 0 51 6.702 51 14.8934H50.9998Z" fill="#F79E1B"/>
</svg>
