<svg width="46" height="53" viewBox="0 0 46 53" fill="none" xmlns="http://www.w3.org/2000/svg">
<ellipse opacity="0.3" cx="22.5944" cy="48.1633" rx="11.1028" ry="4.53764" fill="black"/>
<path d="M45.1899 17.9545C45.1899 33.5704 22.5949 48.1637 22.5949 48.1637C22.5949 48.1637 0 33.5704 0 17.9545C0 8.03851 10.1161 0 22.5949 0C35.0738 0 45.1899 8.03851 45.1899 17.9545Z" fill="#05CAAD"/>
<path d="M22.9708 15.2778C24.4291 15.2778 25.5912 15.6956 26.457 16.5311C27.3229 17.3513 27.7558 18.483 27.7558 19.9261C27.7558 21.3692 27.2089 22.6073 26.1152 23.6402C25.0215 24.658 23.6848 25.1669 22.1049 25.1669H20.8062L21.0796 31H18.0263L18.2997 25.4631L18.0263 15.2778H22.9708ZM22.1505 17.5792H21.034L20.8745 22.9566H22.4239C23.1835 22.9566 23.7683 22.706 24.1784 22.2047C24.6038 21.7034 24.8164 20.9895 24.8164 20.0628C24.8164 18.4071 23.9278 17.5792 22.1505 17.5792Z" fill="#0C1615"/>
</svg>
